<svg width="32" height="32" viewBox="0 0 32 32" fill="none" xmlns="http://www.w3.org/2000/svg">
<g clip-path="url(#clip0_305_6599)">
<path d="M32 16C32 7.16344 24.8366 0 16 0C7.16344 0 0 7.16344 0 16C0 24.8366 7.16344 32 16 32C24.8366 32 32 24.8366 32 16Z" fill="#9391F7"/>
<path fill-rule="evenodd" clip-rule="evenodd" d="M4.80005 15.7048C4.79843 9.68309 9.80637 4.80005 15.9832 4.80005C22.1596 4.80005 27.1675 9.68309 27.1664 15.7048H24.3094C24.3094 11.192 20.6112 7.53317 15.9832 7.53317C11.3553 7.53317 7.65701 11.192 7.65701 15.7048H4.80005ZM13.014 15.9628C14.2704 15.9628 15.2889 14.9883 15.2889 13.7861C15.2889 12.584 14.2704 11.6094 13.014 11.6094C11.7576 11.6094 10.7391 12.584 10.7391 13.7861C10.7391 14.9883 11.7576 15.9628 13.014 15.9628ZM18.9592 15.9628C20.2157 15.9628 21.2342 14.9883 21.2342 13.7861C21.2342 12.584 20.2157 11.6094 18.9592 11.6094C17.7029 11.6094 16.6844 12.584 16.6844 13.7861C16.6844 14.9883 17.7029 15.9628 18.9592 15.9628Z" fill="white"/>
</g>
<defs>
<clipPath id="clip0_305_6599">
<rect width="32" height="32" fill="white"/>
</clipPath>
</defs>
</svg>
