<svg width="32" height="32" viewBox="0 0 32 32" fill="none" xmlns="http://www.w3.org/2000/svg">
<g clip-path="url(#clip0_305_6552)">
<path d="M16 32C24.8366 32 32 24.8366 32 16C32 7.16344 24.8366 0 16 0C7.16344 0 0 7.16344 0 16C0 24.8366 7.16344 32 16 32Z" fill="#345D9D"/>
<path d="M15.9306 16.5731L14.5311 21.2953H22.017C22.0765 21.2955 22.1352 21.3094 22.1884 21.3361C22.2416 21.3629 22.2879 21.4016 22.3235 21.4493C22.3592 21.4969 22.3833 21.5522 22.3939 21.6108C22.4046 21.6693 22.4015 21.7296 22.3847 21.7868L21.7339 24.029C21.7027 24.1361 21.6377 24.2303 21.5485 24.2972C21.4592 24.3641 21.3507 24.4002 21.2391 24.4001H9.80514L11.7385 17.8717L9.6001 18.5225L10.072 16.9962L12.2137 16.3453L14.9281 7.17431C14.9579 7.06684 15.0222 6.97209 15.1109 6.90452C15.1996 6.83694 15.308 6.80025 15.4196 6.80005H18.3163C18.3758 6.79984 18.4344 6.81343 18.4878 6.83975C18.5411 6.86606 18.5875 6.90439 18.6235 6.95171C18.6595 6.99903 18.6839 7.05405 18.6951 7.11244C18.7061 7.17084 18.7035 7.23101 18.6874 7.28822L16.4091 15.0436L18.5475 14.3927L18.0885 15.945L15.9306 16.5731Z" fill="white"/>
</g>
<defs>
<clipPath id="clip0_305_6552">
<rect width="32" height="32" fill="white"/>
</clipPath>
</defs>
</svg>
