<svg width="65" height="64" viewBox="0 0 65 64" fill="none" xmlns="http://www.w3.org/2000/svg">
<path d="M41.2472 19.022C44.3367 19.022 46.841 16.5177 46.841 13.4282C46.841 10.3387 44.3367 7.83374 41.2472 7.83374C38.1577 7.83374 35.6533 10.3381 35.6533 13.4276C35.6533 16.5171 38.1577 19.0214 41.2472 19.0214V19.022Z" fill="white"/>
<path d="M40.1311 42.8147C41.3191 42.8147 42.2822 41.8516 42.2822 40.6636C42.2822 39.4755 41.3191 38.5125 40.1311 38.5125C38.9431 38.5125 37.98 39.4755 37.98 40.6636C37.98 41.8516 38.9431 42.8147 40.1311 42.8147Z" fill="#009FDF"/>
<path d="M54.3972 45.1203H40.1094C37.6498 45.1203 35.6535 43.1234 35.6535 40.6638C35.6535 38.2042 37.6498 36.2079 40.1094 36.2079H54.3972V30.5569C54.3972 27.5787 54.8758 25.1609 51.8976 25.1609H34.8441C34.0687 28.6325 30.9698 31.2269 27.2651 31.2269C23.5604 31.2269 20.4615 28.6325 19.6862 25.1609H10.5742V56.1667H51.897C54.8752 56.1667 54.3966 53.7489 54.3966 50.7706V45.1197L54.3972 45.1203Z" fill="#009FDF"/>
<path d="M35.0309 23.4607C35.0309 19.1715 31.554 15.6946 27.2647 15.6946C22.9754 15.6946 19.4985 19.1715 19.4985 23.4607C19.4985 24.0447 19.5633 24.6134 19.6857 25.1609H34.8436C34.9661 24.6134 35.0309 24.0447 35.0309 23.4607Z" fill="white"/>
</svg>
